Simulation
nRows=36
nColumns=15
endheader
time  TH_x TH_y TH_z SC_y  SC_z  SC_x  AC_y  AC_z  AC_x  GH_y  GH_z  GH_yy  EL_x  PS_y
5.362  0.000000  0.000000  0.000000  -27.907060105976168  7.442750337520242  18.557882225926292  56.724575929265306  18.124150777505164  10.109261840966127  -6.86859586059128  64.88308094881862  7.705986649744175  13.558831669345414  120.000000
5.4156200000000005  0.000000  0.000000  0.000000  -27.98778577229784  7.381694450232439  19.102250037883323  56.959815573009045  17.553722113492043  9.534750811396998  -6.686190113079857  65.21439201093025  7.213289782265136  13.615707194319723  120.000000
5.46924  0.000000  0.000000  0.000000  -27.82816994618567  7.246650427834244  19.15462821753165  57.281879194472324  16.96806148830251  8.715641640793406  -6.523021963283501  65.37262647279599  6.78572641423945  13.484974418982715  120.000000
5.52286  0.000000  0.000000  0.000000  -27.446541516396  7.03722489145597  18.690765181904133  57.69380772437473  16.345959877943734  7.701340104173263  -6.394620239359303  65.31612836627566  6.397259173446076  13.223679166401046  120.000000
5.57648  0.000000  0.000000  0.000000  -26.87626098204597  6.739978961359345  17.701559740307452  58.1832351103988  15.663651861942148  6.574987734910696  -6.308980019755003  65.00793252877035  6.01616048976976  12.915922940426634  120.000000
5.6301000000000005  0.000000  0.000000  0.000000  -26.16419115871744  6.333380066992368  16.191431688943695  58.71383846139806  14.905748890502108  5.442887682733537  -6.256151266500387  64.426224199529  5.632307306223509  12.64047259780805  120.000000
5.68372  0.000000  0.000000  0.000000  -25.367066772428057  5.796510679260692  14.179459821141371  59.225197404996855  14.076300931268225  4.421283059766015  -6.205313188407821  63.5703664922414  5.275220366079273  12.444655085814569  120.000000
5.73734  0.000000  0.000000  0.000000  -24.54393612731635  5.119352240764282  11.704481575117665  59.64267187991482  13.205408018743492  3.619758805974607  -6.110660607372958  62.455531464966356  5.014277726223988  12.336782429256687  120.000000
5.79096  0.000000  0.000000  0.000000  -23.74488269291684  4.311797404695567  8.832624439424709  59.89353253314253  12.346357021690357  3.12320550024726  -5.923691405195186  61.09572486685799  4.939756613308588  12.296934752792021  120.000000
5.8445800000000006  0.000000  0.000000  0.000000  -23.002186650960756  3.407868140339653  5.661623092106583  59.92273991296778  11.561937614094145  2.9744439025377  -5.605082702942307  59.48437710416606  5.135545116378076  12.29426183668247  120.000000
5.8982  0.000000  0.000000  0.000000  -22.32545894079128  2.4635786281717778  2.318503103215217  59.70172226115043  10.90776878130363  3.162699640844481  -5.132605426035816  57.58283682117769  5.656172096237279  12.299350654087688  120.000000
5.95182  0.000000  0.000000  0.000000  -21.700305504760394  1.547136475746773  -1.0475484034170022  59.23000309640785  10.424659202632093  3.626874068769964  -4.5012891105812125  55.32529152281071  6.515571034666956  12.29085205799155  120.000000
6.00544  0.000000  0.000000  0.000000  -21.09238757597013  0.729130482187081  -4.278511367751007  58.53647745238192  10.141778207061613  4.270436311668265  -3.7162068392703755  52.642027694820484  7.686927775182936  12.256540709869702  120.000000
6.059060000000001  0.000000  0.000000  0.000000  -20.46746755632951  0.0739946444376664  -7.223020996038299  57.672999158089844  10.081409799526979  4.9858527429994695  -2.7825868063840837  49.49747375162164  9.111508383592502  12.193566127135636  120.000000
6.11268  0.000000  0.000000  0.000000  -19.82021084913324  -0.36309684214079146  -9.75646232407899  56.705525313874396  10.253709746668635  5.67551077547376  -1.6935699944675928  45.930216735697485  10.708881445919276  12.110053783569057  120.000000
6.1663  0.000000  0.000000  0.000000  -19.18789183734149  -0.5531939238949958  -11.799609982606382  55.70004642171002  10.639500214791155  6.275164426560613  -0.4235490293421846  42.05940909252744  12.390029776645143  12.026249634649448  120.000000
6.21992  0.000000  0.000000  0.000000  -18.640536228825322  -0.5083743108242234  -13.331117143979226  54.714764462260064  11.179950923549443  6.75896686553554  1.064642710942412  38.05158228013261  14.070500066540513  11.972900064715079  120.000000
6.273540000000001  0.000000  0.000000  0.000000  -18.244606296657082  -0.26885386917842613  -14.380381241194577  53.807547984841946  11.790627649159191  7.1174829592469715  2.8061169060974844  34.077729989276776  15.677962677950811  11.98533586181294  120.000000
6.32716  0.000000  0.000000  0.000000  -18.03261856463067  0.10549462525341963  -14.998739488217176  53.027049177018874  12.39137488010559  7.355373387347995  4.816745571498771  30.283293056353173  17.16308458797512  12.099006401876203  120.000000
6.38078  0.000000  0.000000  0.000000  -17.993565034347608  0.5498720305944722  -15.240046602538339  52.4064353647812  12.925342374240055  7.486762773194219  7.0793304924964255  26.77704101014806  18.506514171756226  12.344768678898506  120.000000
6.4344  0.000000  0.000000  0.000000  -18.086176798306116  1.0111183756325304  -15.157886349741743  51.963698792599246  13.360631353236196  7.5234756187902505  9.531056101297407  23.627488967297104  19.7234725251031  12.744805136351703  120.000000
6.488020000000001  0.000000  0.000000  0.000000  -18.259625335468492  1.451721933842427  -14.809015691977404  51.699351435171984  13.686670322649285  7.475229547215595  12.0650175961351  20.86243310789243  20.85376477819928  13.305844614916401  120.000000
6.54164  0.000000  0.000000  0.000000  -18.46986555458586  1.8484695163084544  -14.251441679163168  51.59915672739191  13.909097092089478  7.351806213979855  14.56458554856584  18.477875884671516  21.92132511607607  14.00857929276565  120.000000
6.59526  0.000000  0.000000  0.000000  -18.694560202436236  2.1884427255044883  -13.540392454768652  51.63420593639842  14.04428797886259  7.166736677530022  16.948106956257597  16.451816650064462  22.889340576797903  14.797986477875083  120.000000
6.64888  0.000000  0.000000  0.000000  -18.935815937223854  2.4685479496591154  -12.729195329381694  51.76794563379694  14.113193091495848  6.933067216528077  19.205336237510696  14.7556237126999  23.638601909454753  15.588454997507569  120.000000
6.702500000000001  0.000000  0.000000  0.000000  -19.210812561747495  2.6922141814664062  -11.87032329240201  51.962781565905445  14.135673164813392  6.661036292675504  21.391635205271296  13.357850346431299  24.000266610968907  16.28658475493039  120.000000
6.75612  0.000000  0.000000  0.000000  -19.53536463051697  2.8644659183547603  -11.01300442483923  52.18338106001898  14.128278333529122  6.360688238031301  23.565782020346255  12.222711121710793  23.847783838943972  16.820617416096958  120.000000
6.80974  0.000000  0.000000  0.000000  -19.9067773669244  2.989507598113975  -10.196498226310473  52.402496134948066  14.105454950171124  6.043440475504576  25.709430303420486  11.309290163245677  23.199995496533056  17.164088104920445  120.000000
6.86336  0.000000  0.000000  0.000000  -20.29831383943516  3.0717623913399787  -9.444276059498213  52.60444089331883  14.079414137204068  5.723221193559256  27.68953530552538  10.571837424541954  22.259422454578687  17.34002243659638  120.000000
6.916980000000001  0.000000  0.000000  0.000000  -20.667586947208612  3.116215502997226  -8.764680413646463  52.787120601653  14.057750885622097  5.413956416925835  29.305312362034208  9.96251692650998  21.341329915271064  17.402811933246117  120.000000
6.9706  0.000000  0.000000  0.000000  -20.972079226328894  3.128686553595446  -8.155823870556972  52.96113952429767  14.041150837548637  5.125194833859216  30.395255782032546  9.438044911072206  20.730991548409573  17.41251204231389  120.000000
7.02422  0.000000  0.000000  0.000000  -21.184819600870814  3.1154952788412955  -7.610114314433422  53.1420339178787  14.023117556658478  4.8624048326996  30.92004523536501  8.96669031725595  20.57057402412594  17.41511138164618  120.000000
7.07784  0.000000  0.000000  0.000000  -21.30321109359488  3.082140276145538  -7.117074969102438  53.33873497380085  13.99301803924101  4.628993639532835  30.96167461638991  8.530414650116253  20.84472672193008  17.433384478983932  120.000000
7.131460000000001  0.000000  0.000000  0.000000  -21.34645652533284  3.035476208580677  -6.665970287912105  53.54911153742299  13.94177918691104  4.425458424366999  30.657421280369956  8.121876599834888  21.44941264755298  17.470333871991343  120.000000
7.18508  0.000000  0.000000  0.000000  -21.344244070944747  2.9839927779604007  -6.248474280154606  53.764112821313894  13.865360275937903  4.2489314640955245  30.14362835243623  7.739970427729711  22.260809468712015  17.51865359408448  120.000000
7.2387  0.000000  0.000000  0.000000  -21.324833715097796  2.935020734860354  -5.859402614470776  53.97384393521307  13.764141223823216  4.094754255891888  29.535137426024818  7.386433824948071  23.168963615749607  17.56943858433462  120.000000
